<svg width="26" height="23" viewBox="0 0 26 23" fill="none" xmlns="http://www.w3.org/2000/svg">
<path d="M24.9786 7.866C24.326 6.33566 23.38 4.94531 22.1929 3.772C21.0086 2.59586 19.6053 1.65854 18.0607 1.012C16.456 0.33925 14.7556 0 13 0C11.2444 0 9.54397 0.33925 7.93929 1.012C6.39469 1.65854 4.99138 2.59586 3.80714 3.772C2.62005 4.94531 1.67399 6.33566 1.02143 7.866C0.342411 9.45588 0 11.1406 0 12.88C0 16.6951 1.69174 20.2889 4.63996 22.7441L4.68929 22.7844C4.85759 22.9224 5.06942 23 5.28705 23H20.7158C20.9335 23 21.1453 22.9224 21.3136 22.7844L21.3629 22.7441C24.3083 20.2889 26 16.6951 26 12.88C26 11.1406 25.6547 9.45588 24.9786 7.866ZM20.2371 20.815H5.76295C4.64169 19.8133 3.74553 18.5893 3.13264 17.2223C2.51975 15.8552 2.20382 14.3758 2.20536 12.88C2.20536 10.0223 3.32835 7.337 5.3683 5.31875C7.40826 3.29762 10.1185 2.185 13 2.185C15.8844 2.185 18.5946 3.29762 20.6317 5.31875C22.6717 7.33988 23.7946 10.0251 23.7946 12.88C23.7946 15.916 22.5033 18.7881 20.2371 20.815ZM16.2355 8.89813C16.1919 8.85532 16.1329 8.83131 16.0715 8.83131C16.0101 8.83131 15.9512 8.85532 15.9076 8.89813L13.4556 11.3275C12.9129 11.1838 12.3123 11.3218 11.8857 11.7444C11.7346 11.8938 11.6148 12.0712 11.533 12.2666C11.4512 12.462 11.4091 12.6714 11.4091 12.8829C11.4091 13.0944 11.4512 13.3038 11.533 13.4991C11.6148 13.6945 11.7346 13.872 11.8857 14.0214C12.0365 14.1711 12.2156 14.2898 12.4128 14.3709C12.61 14.4519 12.8214 14.4936 13.0348 14.4936C13.2483 14.4936 13.4597 14.4519 13.6568 14.3709C13.854 14.2898 14.0331 14.1711 14.1839 14.0214C14.386 13.8217 14.5314 13.5728 14.6052 13.2997C14.6791 13.0266 14.6789 12.739 14.6047 12.466L17.0567 10.0366C17.1467 9.9475 17.1467 9.80087 17.0567 9.71175L16.2355 8.89813ZM12.3616 5.98H13.6384C13.7661 5.98 13.8705 5.8765 13.8705 5.75V3.45C13.8705 3.3235 13.7661 3.22 13.6384 3.22H12.3616C12.2339 3.22 12.1295 3.3235 12.1295 3.45V5.75C12.1295 5.8765 12.2339 5.98 12.3616 5.98ZM19.9062 12.2475V13.5125C19.9062 13.639 20.0107 13.7425 20.1384 13.7425H22.4598C22.5875 13.7425 22.692 13.639 22.692 13.5125V12.2475C22.692 12.121 22.5875 12.0175 22.4598 12.0175H20.1384C20.0107 12.0175 19.9062 12.121 19.9062 12.2475ZM20.2748 6.578L19.3723 5.68388C19.3287 5.64107 19.2698 5.61706 19.2084 5.61706C19.147 5.61706 19.088 5.64107 19.0444 5.68388L17.402 7.31112C17.3588 7.35435 17.3346 7.41273 17.3346 7.47356C17.3346 7.5344 17.3588 7.59277 17.402 7.636L18.3045 8.53013C18.3944 8.61925 18.5424 8.61925 18.6324 8.53013L20.2748 6.90288C20.3647 6.81375 20.3647 6.66712 20.2748 6.578ZM6.96719 5.68388C6.92356 5.64107 6.86464 5.61706 6.80324 5.61706C6.74184 5.61706 6.68292 5.64107 6.63929 5.68388L5.73683 6.578C5.69363 6.62123 5.66939 6.6796 5.66939 6.74044C5.66939 6.80127 5.69363 6.85965 5.73683 6.90288L7.37924 8.53013C7.4692 8.61925 7.61719 8.61925 7.70714 8.53013L8.6096 7.636C8.69955 7.54688 8.69955 7.40025 8.6096 7.31112L6.96719 5.68388ZM5.74554 12.0175H3.42411C3.29643 12.0175 3.19196 12.121 3.19196 12.2475V13.5125C3.19196 13.639 3.29643 13.7425 3.42411 13.7425H5.74554C5.87321 13.7425 5.97768 13.639 5.97768 13.5125V12.2475C5.97768 12.121 5.87321 12.0175 5.74554 12.0175Z" fill="black"/>
</svg>
