<svg width="24" height="24" viewBox="0 0 24 24" fill="none" xmlns="http://www.w3.org/2000/svg">
<path d="M23.3638 9.78437L23.3575 9.75937L19.8513 0.85C19.695 0.346875 19.2294 0 18.7013 0H4.48878C3.95753 0 3.48565 0.353125 3.33565 0.8625L0.0575259 9.68125L0.0481513 9.70312L0.0419009 9.72812C0.00127595 9.88125 -0.0112241 10.0375 0.0106509 10.1906C0.00752595 10.2406 0.00440104 10.2906 0.00440104 10.3406V21.775C0.00522739 22.2787 0.205671 22.7614 0.561811 23.1176C0.917951 23.4737 1.40074 23.6742 1.9044 23.675H21.5044C22.5513 23.675 23.4044 22.8219 23.4075 21.775V10.3406C23.4075 10.3 23.4075 10.2594 23.4044 10.225C23.4169 10.0719 23.4044 9.925 23.3638 9.78437ZM14.12 8.44062L14.1106 8.93125C14.0856 10.3344 13.1169 11.2781 11.7013 11.2781C11.0107 11.2781 10.4169 11.0562 9.98878 10.6344C9.56065 10.2125 9.32628 9.625 9.31378 8.93125L9.3044 8.44062H2.87315L5.35753 2.4H17.8325L20.3857 8.44062H14.12ZM2.40128 10.8406H7.3169C8.07628 12.625 9.6919 13.6781 11.7044 13.6781C12.7575 13.6781 13.7357 13.3844 14.5263 12.8281C15.22 12.3406 15.7607 11.6594 16.1107 10.8406H21.0013V21.275H2.40128V10.8406Z" fill="black"/>
</svg>
