<svg width="23" height="26" viewBox="0 0 23 26" fill="none" xmlns="http://www.w3.org/2000/svg">
<path d="M21.9048 20.5636H21.0833V10.5182C21.0833 6.34932 17.5135 2.90432 12.869 2.33114V1.18182C12.869 0.528864 12.2564 0 11.5 0C10.7436 0 10.131 0.528864 10.131 1.18182V2.33114C5.48646 2.90432 1.91667 6.34932 1.91667 10.5182V20.5636H1.09524C0.489434 20.5636 0 20.9861 0 21.5091V22.4545C0 22.5845 0.123214 22.6909 0.27381 22.6909H7.66667C7.66667 24.5168 9.38482 26 11.5 26C13.6152 26 15.3333 24.5168 15.3333 22.6909H22.7262C22.8768 22.6909 23 22.5845 23 22.4545V21.5091C23 20.9861 22.5106 20.5636 21.9048 20.5636ZM11.5 24.1091C10.593 24.1091 9.85714 23.4739 9.85714 22.6909H13.1429C13.1429 23.4739 12.407 24.1091 11.5 24.1091ZM4.38095 20.5636V10.5182C4.38095 8.87545 5.12024 7.33318 6.46533 6.17205C7.81042 5.01091 9.59702 4.37273 11.5 4.37273C13.403 4.37273 15.1896 5.01091 16.5347 6.17205C17.8798 7.33318 18.619 8.87545 18.619 10.5182V20.5636H4.38095Z" fill="black"/>
</svg>
