<svg width="26" height="26" viewBox="0 0 26 26" fill="none" xmlns="http://www.w3.org/2000/svg">
<path d="M25.6567 16.3048L23.6489 14.6797C23.7439 14.1283 23.793 13.5653 23.793 13.0024C23.793 12.4394 23.7439 11.8764 23.6489 11.325L25.6567 9.69989C25.8081 9.57716 25.9165 9.41369 25.9674 9.23122C26.0184 9.04875 26.0094 8.85593 25.9418 8.67839L25.9142 8.60294C25.3614 7.14042 24.5337 5.78463 23.4711 4.6011L23.4159 4.54016C23.287 4.39666 23.1152 4.29351 22.9231 4.24429C22.7311 4.19508 22.5278 4.20211 22.34 4.26447L19.8479 5.10314C18.9283 4.38926 17.9014 3.82627 16.7918 3.4316L16.3105 0.964911C16.2742 0.779306 16.1791 0.608554 16.0379 0.475339C15.8966 0.342124 15.7159 0.252754 15.5197 0.2191L15.4369 0.20459C13.8399 -0.0681967 12.1601 -0.0681967 10.5631 0.20459L10.4803 0.2191C10.2841 0.252754 10.1034 0.342124 9.96213 0.475339C9.82087 0.608554 9.72577 0.779306 9.68946 0.964911L9.20514 3.44321C8.10435 3.83796 7.07925 4.40065 6.17048 5.10895L3.65999 4.26447C3.47229 4.20162 3.26883 4.19433 3.07665 4.24357C2.88446 4.29282 2.71266 4.39626 2.58407 4.54016L2.52889 4.6011C1.46751 5.78547 0.63997 7.14103 0.085835 8.60294L0.0582471 8.67839C-0.079692 9.04114 0.0337247 9.44742 0.343321 9.69989L2.37562 11.3424C2.2806 11.888 2.23462 12.4452 2.23462 12.9995C2.23462 13.5566 2.2806 14.1138 2.37562 14.6565L0.343321 16.299C0.191882 16.4217 0.0834945 16.5852 0.032572 16.7677C-0.0183504 16.9502 -0.00939519 17.143 0.0582471 17.3205L0.085835 17.396C0.640657 18.8586 1.46216 20.208 2.52889 21.3978L2.58407 21.4587C2.71298 21.6022 2.88478 21.7054 3.07685 21.7546C3.26892 21.8038 3.47223 21.7968 3.65999 21.7344L6.17048 20.89C7.08395 21.6009 8.10469 22.1639 9.20514 22.5557L9.68946 25.034C9.72577 25.2196 9.82087 25.3904 9.96213 25.5236C10.1034 25.6568 10.2841 25.7462 10.4803 25.7798L10.5631 25.7943C12.1748 26.0686 13.8252 26.0686 15.4369 25.7943L15.5197 25.7798C15.7159 25.7462 15.8966 25.6568 16.0379 25.5236C16.1791 25.3904 16.2742 25.2196 16.3105 25.034L16.7918 22.5673C17.901 22.1737 18.9337 21.6088 19.8479 20.8958L22.34 21.7344C22.5277 21.7973 22.7312 21.8046 22.9234 21.7553C23.1155 21.7061 23.2873 21.6026 23.4159 21.4587L23.4711 21.3978C24.5378 20.2051 25.3593 18.8586 25.9142 17.396L25.9418 17.3205C26.0797 16.9636 25.9663 16.5573 25.6567 16.3048ZM21.4725 11.6674C21.5492 12.1056 21.589 12.5554 21.589 13.0053C21.589 13.4551 21.5492 13.9049 21.4725 14.3431L21.2702 15.5068L23.56 17.3611C23.2129 18.1182 22.7747 18.8349 22.2542 19.497L19.4096 18.5422L18.4471 19.291C17.7145 19.8597 16.8991 20.3067 16.0163 20.6201L14.8484 21.0351L14.2997 23.85C13.434 23.9428 12.5599 23.9428 11.6942 23.85L11.1455 21.0293L9.9868 20.6085C9.11318 20.295 8.30087 19.8481 7.5744 19.2823L6.61189 18.5306L3.74888 19.4941C3.22778 18.8295 2.79251 18.1128 2.44306 17.3582L4.75737 15.4865L4.55813 14.3257C4.48456 13.8933 4.44471 13.4464 4.44471 13.0053C4.44471 12.5613 4.48149 12.1172 4.55813 11.6849L4.75737 10.5241L2.44306 8.65227C2.78944 7.89486 3.22778 7.18097 3.74888 6.51641L6.61189 7.47987L7.5744 6.72826C8.30087 6.16237 9.11318 5.71546 9.9868 5.40205L11.1486 4.98706L11.6972 2.16633C12.5586 2.07347 13.4383 2.07347 14.3028 2.16633L14.8514 4.98126L16.0193 5.39625C16.8991 5.70966 17.7175 6.15657 18.4501 6.72536L19.4126 7.47407L22.2572 6.51931C22.7784 7.18387 23.2136 7.90066 23.5631 8.65518L21.2733 10.5095L21.4725 11.6674ZM13.0031 7.60756C10.0236 7.60756 7.60811 9.89433 7.60811 12.7151C7.60811 15.5358 10.0236 17.8226 13.0031 17.8226C15.9825 17.8226 18.398 15.5358 18.398 12.7151C18.398 9.89433 15.9825 7.60756 13.0031 7.60756ZM15.4308 15.0134C15.1124 15.3158 14.734 15.5555 14.3173 15.7188C13.9007 15.8822 13.454 15.9659 13.0031 15.9653C12.0865 15.9653 11.2252 15.6258 10.5753 15.0134C10.256 14.712 10.0028 14.3537 9.83023 13.9593C9.65768 13.5648 9.56921 13.142 9.56991 12.7151C9.56991 11.8474 9.92856 11.0319 10.5753 10.4167C11.2252 9.80146 12.0865 9.46483 13.0031 9.46483C13.9196 9.46483 14.7809 9.80146 15.4308 10.4167C15.7501 10.7181 16.0034 11.0764 16.1759 11.4708C16.3485 11.8653 16.4369 12.2881 16.4362 12.7151C16.4362 13.5828 16.0776 14.3982 15.4308 15.0134Z" fill="black"/>
</svg>
