<svg width="33" height="23" viewBox="0 0 33 23" fill="none" xmlns="http://www.w3.org/2000/svg">
<path d="M19.672 19.0199C19.1584 17.8051 18.413 16.7017 17.4774 15.7711C16.5447 14.8378 15.4398 14.0937 14.2237 13.5798C14.2129 13.5744 14.202 13.5717 14.1911 13.5662C15.8873 12.3428 16.9901 10.35 16.9901 8.10169C16.9901 4.37711 13.9678 1.35938 10.2376 1.35938C6.50745 1.35938 3.48519 4.37711 3.48519 8.10169C3.48519 10.35 4.58791 12.3428 6.28419 13.5689C6.2733 13.5744 6.26241 13.5771 6.25151 13.5825C5.03172 14.0964 3.93717 14.8331 2.99782 15.7738C2.06313 16.7051 1.31789 17.8084 0.803281 19.0226C0.297726 20.2114 0.0250682 21.4859 6.80852e-05 22.7771C-0.000658632 22.8061 0.00443844 22.835 0.0150591 22.862C0.0256798 22.889 0.0416091 22.9137 0.0619084 22.9344C0.0822077 22.9552 0.106466 22.9717 0.133255 22.983C0.160043 22.9942 0.18882 23 0.217889 23H1.85154C1.97134 23 2.06664 22.9049 2.06936 22.788C2.12382 20.6892 2.96787 18.7236 4.45994 17.2337C6.00374 15.6922 8.05398 14.844 10.2376 14.844C12.4213 14.844 14.4715 15.6922 16.0153 17.2337C17.5074 18.7236 18.3514 20.6892 18.4059 22.788C18.4086 22.9076 18.5039 23 18.6237 23H20.2574C20.2864 23 20.3152 22.9942 20.342 22.983C20.3688 22.9717 20.393 22.9552 20.4133 22.9344C20.4336 22.9137 20.4496 22.889 20.4602 22.862C20.4708 22.835 20.4759 22.8061 20.4752 22.7771C20.448 21.4776 20.1784 20.2134 19.672 19.0199ZM10.2376 12.7778C8.98788 12.7778 7.81165 12.2912 6.92676 11.4076C6.04186 10.524 5.55449 9.34956 5.55449 8.10169C5.55449 6.85382 6.04186 5.67935 6.92676 4.79578C7.81165 3.91221 8.98788 3.42557 10.2376 3.42557C11.4874 3.42557 12.6636 3.91221 13.5485 4.79578C14.4334 5.67935 14.9208 6.85382 14.9208 8.10169C14.9208 9.34956 14.4334 10.524 13.5485 11.4076C12.6636 12.2912 11.4874 12.7778 10.2376 12.7778Z" fill="black"/>
<path d="M32.1967 17.6605C31.6831 16.4457 30.9377 15.3423 30.0022 14.4117C29.0694 13.4784 27.9645 12.7343 26.7485 12.2204C26.7376 12.215 26.7267 12.2123 26.7158 12.2069C28.4121 10.9835 29.5148 8.99066 29.5148 6.74232C29.5148 3.01773 26.4925 0 22.7623 0C19.0322 0 16.0099 3.01773 16.0099 6.74232C16.0099 8.99066 17.1126 10.9835 18.8089 12.2096C18.798 12.215 18.7871 12.2177 18.7762 12.2232C17.5564 12.737 16.4619 13.4738 15.5225 14.4144C14.5878 15.3458 13.8426 16.449 13.328 17.6632C12.8224 18.852 12.5498 20.1265 12.5248 21.4177C12.5241 21.4467 12.5292 21.4756 12.5398 21.5026C12.5504 21.5297 12.5663 21.5543 12.5866 21.5751C12.6069 21.5958 12.6312 21.6123 12.658 21.6236C12.6848 21.6349 12.7135 21.6407 12.7426 21.6407H14.3763C14.4961 21.6407 14.5914 21.5455 14.5941 21.4286C14.6485 19.3298 15.4926 17.3642 16.9847 15.8744C18.5285 14.3329 20.5787 13.4846 22.7623 13.4846C24.946 13.4846 26.9962 14.3329 28.54 15.8744C30.0321 17.3642 30.8762 19.3298 30.9306 21.4286C30.9333 21.5482 31.0286 21.6407 31.1484 21.6407H32.7821C32.8112 21.6407 32.8399 21.6349 32.8667 21.6236C32.8935 21.6123 32.9178 21.5958 32.9381 21.5751C32.9584 21.5543 32.9743 21.5297 32.9849 21.5026C32.9955 21.4756 33.0006 21.4467 32.9999 21.4177C32.9727 20.1182 32.7031 18.854 32.1967 17.6605ZM22.7623 11.4184C21.5126 11.4184 20.3364 10.9318 19.4515 10.0482C18.5666 9.16466 18.0792 7.99019 18.0792 6.74232C18.0792 5.49444 18.5666 4.31998 19.4515 3.43641C20.3364 2.55284 21.5126 2.06619 22.7623 2.06619C24.0121 2.06619 25.1883 2.55284 26.0732 3.43641C26.9581 4.31998 27.4455 5.49444 27.4455 6.74232C27.4455 7.99019 26.9581 9.16466 26.0732 10.0482C25.1883 10.9318 24.0121 11.4184 22.7623 11.4184Z" fill="black"/>
</svg>
